<svg width="171" height="28" viewBox="0 0 171 28" fill="none" xmlns="http://www.w3.org/2000/svg">
<path d="M135.537 18.563C134.59 19.3408 133.538 19.7556 132.328 19.7556C130.749 19.7556 129.486 19.2371 128.487 18.1482C127.487 17.0593 127.014 15.6593 127.014 13.9482C127.014 12.1852 127.487 10.7852 128.487 9.69635C129.434 8.60746 130.749 8.08894 132.328 8.08894C133.485 8.08894 134.538 8.45191 135.432 9.17783C136.379 9.90376 137.01 10.8371 137.379 11.9778H146.376C145.902 8.45191 144.377 5.60006 141.798 3.37043C139.22 1.19265 136.011 0.10376 132.275 0.10376C129.486 0.10376 126.961 0.67413 124.751 1.86672C122.541 3.05932 120.752 4.71858 119.542 6.79265C118.279 8.91857 117.648 11.2519 117.648 13.8964C117.648 16.5408 118.279 18.8741 119.542 21.0001C120.805 23.126 122.541 24.7852 124.751 25.926C126.961 27.1186 129.486 27.6889 132.275 27.6889C136.116 27.6889 139.326 26.5482 141.956 24.3186C144.587 22.0371 146.113 19.0815 146.534 15.4519H137.379C137.063 16.7482 136.484 17.7852 135.537 18.563ZM162.003 20.2223C161.371 20.8445 160.53 21.1556 159.53 21.1556C158.53 21.1556 157.688 20.8445 157.057 20.2223C156.426 19.6001 156.11 18.7704 156.11 17.7852C156.11 16.8001 156.426 15.9704 157.057 15.2964C157.688 14.6741 158.53 14.3112 159.53 14.3112C160.53 14.3112 161.371 14.6223 162.003 15.2964C162.634 15.9186 162.95 16.7482 162.95 17.7852C163.002 18.7704 162.687 19.6001 162.003 20.2223ZM168.001 11.4075C166.212 9.7482 163.95 8.91857 161.108 8.91857C160.845 8.91857 160.424 8.91857 159.951 8.97043L164.949 0.985241H156.057L151.848 7.72598C150.638 9.6445 149.796 11.4075 149.217 13.0149C148.638 14.6223 148.375 16.2297 148.375 17.8371C148.375 20.7408 149.428 23.126 151.48 24.9926C153.532 26.8075 156.215 27.7408 159.53 27.7408C162.897 27.7408 165.581 26.8075 167.633 24.9926C169.685 23.1778 170.684 20.7408 170.684 17.7852C170.684 15.1926 169.79 13.0149 168.001 11.4075ZM7.20828 25.7186C5.10366 24.5778 3.47259 22.9704 2.26243 20.9482C1.05228 18.926 0.473511 16.6445 0.473511 14.1038C0.473511 11.563 1.05228 9.28154 2.26243 7.25932C3.47259 5.23709 5.10366 3.62969 7.20828 2.48895C9.31289 1.3482 11.6806 0.777834 14.3114 0.777834C16.2581 0.777834 18.047 1.08894 19.6781 1.71117C21.3092 2.33339 22.6772 3.21487 23.8347 4.45932L22.6246 5.70376C20.4674 3.62969 17.7314 2.59265 14.4166 2.59265C12.1541 2.59265 10.1547 3.11117 8.3132 4.09635C6.47166 5.08154 5.05105 6.48154 3.99874 8.2445C2.94643 10.0075 2.42028 11.9778 2.42028 14.1556C2.42028 16.3334 2.94643 18.3038 3.99874 20.0667C5.05105 21.8297 6.47166 23.2297 8.3132 24.2149C10.1547 25.2001 12.2067 25.7186 14.4166 25.7186C17.7314 25.7186 20.4674 24.6815 22.6246 22.5556L23.8347 23.8001C22.6772 24.9926 21.3092 25.926 19.6781 26.5482C18.047 27.1704 16.2581 27.4815 14.364 27.4815C11.6806 27.4297 9.31289 26.8593 7.20828 25.7186ZM39.8824 9.33339C41.1978 10.5778 41.8818 12.3926 41.8818 14.8297V27.2741H40.0403V23.8001C39.4089 24.9408 38.4618 25.8741 37.2517 26.4964C36.0415 27.1186 34.5683 27.4815 32.8846 27.4815C30.6747 27.4815 28.9384 26.963 27.623 25.926C26.3603 24.8889 25.6763 23.5408 25.6763 21.8815C25.6763 20.2741 26.255 18.926 27.4652 17.8889C28.6227 16.8519 30.5169 16.3852 33.1477 16.3852H39.9877V14.8297C39.9877 13.0149 39.4615 11.6149 38.4618 10.6297C37.4621 9.69635 35.9889 9.17783 34.0421 9.17783C32.7267 9.17783 31.464 9.38524 30.2538 9.85191C29.0437 10.3186 28.044 10.8889 27.2021 11.6667L26.255 10.3186C27.2547 9.43709 28.4649 8.76302 29.8329 8.2445C31.2535 7.77783 32.6741 7.51857 34.2 7.51857C36.6203 7.46672 38.567 8.08894 39.8824 9.33339ZM37.3043 24.7334C38.4618 23.9556 39.3563 22.8667 39.935 21.4667V17.7852H33.1477C31.2009 17.7852 29.7803 18.1482 28.8858 18.8223C27.9914 19.4964 27.5704 20.4815 27.5704 21.726C27.5704 23.0223 28.044 24.0075 29.0437 24.7334C29.9907 25.4593 31.3587 25.8223 33.1477 25.8223C34.7787 25.8741 36.1467 25.4593 37.3043 24.7334ZM52.5101 8.60746C53.8255 7.82969 55.404 7.46672 57.2455 7.46672V9.33339L56.772 9.28154C54.5621 9.28154 52.8258 9.95561 51.563 11.3556C50.3003 12.7038 49.6689 14.6223 49.6689 17.0593V27.2741H47.7747V7.62228H49.6163V11.926C50.2477 10.4741 51.1947 9.38524 52.5101 8.60746ZM71.399 26.0297C70.9255 26.4964 70.2941 26.8075 69.6101 27.0667C68.8735 27.326 68.1369 27.4297 67.3477 27.4297C65.6114 27.4297 64.296 26.963 63.3489 26.0297C62.4018 25.0964 61.9283 23.8001 61.9283 22.0889V9.22968H58.2452V7.62228H61.9283V3.31857H63.8224V7.62228H70.1363V9.22968H63.8224V21.8815C63.8224 23.1778 64.1381 24.1112 64.7695 24.7852C65.4009 25.4593 66.2953 25.7704 67.5581 25.7704C68.8209 25.7704 69.8206 25.4075 70.6624 24.6815L71.399 26.0297ZM87.1837 9.33339C88.499 10.5778 89.183 12.3926 89.183 14.8297V27.2741H87.3415V23.8001C86.7101 24.9408 85.763 25.8741 84.5529 26.4964C83.3427 27.1186 81.8695 27.4815 80.1858 27.4815C77.976 27.4815 76.2397 26.963 74.9243 25.926C73.6615 24.8889 72.9775 23.5408 72.9775 21.8815C72.9775 20.2741 73.5563 18.926 74.7664 17.8889C75.924 16.8519 77.8181 16.3852 80.4489 16.3852H87.2889V14.8297C87.2889 13.0149 86.7627 11.6149 85.763 10.6297C84.7634 9.69635 83.2901 9.17783 81.3434 9.17783C80.028 9.17783 78.7652 9.38524 77.555 9.85191C76.3449 10.3186 75.3452 10.8889 74.5034 11.6667L73.5563 10.3186C74.556 9.43709 75.7661 8.76302 77.1341 8.2445C78.5547 7.77783 79.9753 7.51857 81.5012 7.51857C83.9741 7.46672 85.8683 8.08894 87.1837 9.33339ZM84.6581 24.7334C85.8157 23.9556 86.7101 22.8667 87.2889 21.4667V17.7852H80.5015C78.5547 17.7852 77.1341 18.1482 76.2397 18.8223C75.3452 19.4964 74.9243 20.4815 74.9243 21.726C74.9243 23.0223 75.3978 24.0075 76.3975 24.7334C77.3446 25.4593 78.7126 25.8223 80.5015 25.8223C82.08 25.8741 83.5006 25.4593 84.6581 24.7334ZM82.4483 3.73339C82.0274 3.47413 81.5538 3.11117 81.0803 2.6445C80.6594 2.28154 80.291 1.97043 79.9754 1.81487C79.6597 1.60746 79.3966 1.55561 79.0283 1.55561C78.4495 1.55561 77.976 1.76302 77.6077 2.22969C77.2394 2.6445 77.0289 3.26672 76.9763 3.99265H75.7661C75.8187 2.85191 76.1344 1.97043 76.6606 1.2445C77.2393 0.570426 77.976 0.207463 78.923 0.207463C79.5018 0.207463 79.9753 0.363019 80.4489 0.622278C80.8698 0.881538 81.3434 1.2445 81.8169 1.71117C82.2378 2.07413 82.6061 2.38524 82.9218 2.5408C83.2375 2.7482 83.5006 2.80006 83.8689 2.80006C84.4477 2.80006 84.9212 2.59265 85.2895 2.17783C85.6578 1.76302 85.8683 1.19265 85.9209 0.466723H87.1837C87.131 1.55561 86.8154 2.43709 86.2366 3.16302C85.6578 3.83709 84.9212 4.20006 84.0267 4.20006C83.3954 4.09635 82.9218 3.99265 82.4483 3.73339ZM97.8646 26.1334C96.3387 25.3038 95.1812 24.1112 94.2867 22.5556C93.4449 21.0519 92.9714 19.3408 92.9714 17.4223C92.9714 15.5038 93.3923 13.7926 94.2867 12.2889C95.1286 10.7852 96.3387 9.59265 97.8646 8.71117C99.3904 7.88154 101.074 7.41487 102.968 7.41487C104.862 7.41487 106.546 7.82968 108.072 8.71117C109.598 9.5408 110.755 10.7334 111.65 12.2889C112.492 13.7926 112.965 15.5038 112.965 17.4223C112.965 19.3408 112.544 21.0519 111.65 22.5556C110.808 24.0593 109.598 25.2519 108.072 26.1334C106.546 27.0149 104.862 27.4297 102.968 27.4297C101.074 27.3778 99.3904 26.963 97.8646 26.1334ZM107.072 24.6815C108.282 23.9556 109.229 23.0223 109.913 21.726C110.598 20.4815 110.966 19.0297 110.966 17.4223C110.966 15.8149 110.598 14.363 109.913 13.1186C109.229 11.8741 108.282 10.8889 107.072 10.163C105.862 9.43709 104.494 9.12598 102.968 9.12598C101.442 9.12598 100.074 9.48895 98.8643 10.163C97.6541 10.8889 96.707 11.8223 96.023 13.1186C95.339 14.363 94.9707 15.8149 94.9707 17.4223C94.9707 19.0297 95.339 20.4815 96.023 21.726C96.707 22.9704 97.6541 23.9556 98.8643 24.6815C100.074 25.4075 101.442 25.7186 102.968 25.7186C104.494 25.7186 105.862 25.3556 107.072 24.6815Z" fill="black"/>
</svg>
